<?xml version="1.0" standalone="no"?>
<!DOCTYPE svg PUBLIC "-//W3C//DTD SVG 20010904//EN"
 "http://www.w3.org/TR/2001/REC-SVG-20010904/DTD/svg10.dtd">
<svg version="1.0" xmlns="http://www.w3.org/2000/svg"
 width="896.000000pt" height="896.000000pt" viewBox="0 0 896.000000 896.000000"
 preserveAspectRatio="xMidYMid meet">
<metadata>
Created by potrace 1.14, written by Peter Selinger 2001-2017
</metadata>
<g transform="translate(0.000000,896.000000) scale(0.100000,-0.100000)"
fill="#000000" stroke="none">
<path d="M4571 8608 c-6 -29 -31 -172 -56 -318 -25 -146 -52 -301 -60 -345 -8
-44 -20 -115 -25 -159 -5 -43 -16 -115 -25 -160 -8 -44 -30 -171 -50 -280 -20
-110 -38 -203 -40 -206 -2 -4 2 -32 9 -63 l13 -56 -46 -6 c-120 -15 -276 -48
-375 -79 -61 -19 -113 -33 -118 -30 -4 3 -8 31 -8 63 l0 59 -343 518 c-512
775 -498 755 -491 714 8 -44 114 -414 204 -715 38 -126 101 -340 139 -473 68
-237 70 -246 64 -325 l-6 -82 -55 -40 c-79 -57 -218 -198 -282 -288 -30 -41
-59 -76 -64 -76 -4 -1 -7 46 -5 104 l4 105 -290 153 c-264 139 -290 151 -296
132 -3 -11 -1 -38 4 -60 12 -55 4 -118 -21 -152 l-21 -29 198 -198 198 -197
-5 -82 c-10 -197 -19 -263 -51 -352 -18 -49 -38 -93 -44 -97 -7 -4 -48 -8 -92
-8 -44 0 -97 -3 -117 -6 -36 -6 -38 -9 -38 -43 1 -52 31 -112 73 -144 50 -38
49 -59 0 -51 -54 8 -64 16 -127 88 -72 81 -131 110 -231 110 -145 0 -211 -84
-154 -196 l21 -42 16 30 c31 59 97 83 177 65 65 -15 85 -35 85 -83 0 -22 7
-46 15 -54 8 -9 15 -29 15 -46 0 -25 -3 -29 -17 -22 -26 11 -166 17 -217 10
-24 -4 -52 -13 -62 -20 -18 -14 -17 -15 9 -41 22 -23 29 -26 42 -15 9 7 49 15
90 18 58 4 80 1 100 -12 14 -9 25 -21 25 -28 0 -6 -20 -31 -45 -55 -36 -37
-43 -49 -35 -63 6 -10 10 -28 10 -40 0 -11 63 -118 141 -238 l140 -217 -88 -6
-88 -5 95 -3 95 -3 195 -296 c217 -330 396 -589 506 -732 l73 -95 -23 -30
c-37 -48 -56 -92 -56 -127 0 -32 1 -31 27 22 l27 55 6 -70 c3 -38 14 -83 23
-100 l16 -30 -6 37 c-3 20 -2 57 1 82 6 41 9 45 26 36 10 -5 28 -10 39 -10 19
0 19 1 -4 26 -32 35 -32 49 0 28 21 -14 28 -14 41 -3 44 37 100 223 108 362 5
80 5 80 -4 22 -20 -122 -68 -252 -107 -287 -19 -17 -23 -13 -139 145 -231 311
-702 976 -891 1257 -74 109 -92 143 -94 177 -3 33 2 48 19 66 26 27 50 103 60
187 l7 55 29 -41 c25 -34 40 -43 93 -58 48 -14 63 -23 63 -37 0 -21 28 -39 62
-39 48 -1 110 -60 134 -128 11 -32 13 -34 20 -17 184 512 546 932 999 1158
316 157 742 242 1050 207 745 -82 1334 -513 1691 -1235 51 -103 74 -141 74
-123 0 43 28 103 59 126 15 11 47 25 69 32 23 6 45 17 49 25 5 8 221 77 498
160 537 161 731 220 875 268 l95 32 -415 6 c-228 4 -573 10 -766 13 l-350 6
-18 -56 c-10 -31 -19 -54 -22 -52 -27 27 -130 548 -122 617 2 19 132 152 503
515 275 269 507 495 515 503 15 14 -561 -267 -1026 -500 l-231 -116 4 -118 c3
-72 2 -114 -4 -108 -5 6 -42 49 -82 98 -74 88 -187 194 -273 256 l-46 33 -7
92 -7 91 105 365 c58 201 144 500 192 665 47 165 92 321 100 348 27 93 42 113
-502 -665 l-383 -547 10 -52 c6 -29 9 -53 8 -55 -2 -1 -40 8 -86 22 -45 13
-124 30 -175 39 -50 8 -106 18 -124 20 -30 5 -34 11 -52 68 -17 58 -76 341
-216 1047 -56 285 -112 541 -119 548 -3 2 -9 -20 -15 -50z"/>
<path d="M1815 7008 c143 -137 167 -151 185 -107 7 15 19 34 26 40 12 10 -16
28 -153 100 -92 49 -172 88 -177 89 -6 0 48 -55 119 -122z"/>
<path d="M2057 6484 c-3 -3 -15 -6 -28 -8 -34 -3 -69 -24 -69 -40 0 -11 6 -11
38 0 50 18 174 18 217 0 31 -13 34 -13 32 5 -2 24 -18 30 -97 35 -36 3 -70 7
-77 9 -6 2 -13 1 -16 -1z"/>
<path d="M2009 6318 l-38 -42 -24 22 c-32 30 -53 28 -73 -8 -23 -37 -42 -45
-65 -24 -28 25 -45 6 -19 -21 17 -18 21 -33 18 -63 l-3 -40 28 15 c136 70 437
69 565 -2 l42 -24 0 25 c0 14 7 40 15 60 21 50 4 84 -25 49 -19 -23 -37 -18
-49 15 -12 35 -21 37 -46 10 -25 -28 -31 -26 -60 20 -37 58 -52 61 -91 15
l-32 -39 -41 37 c-23 20 -46 37 -52 37 -6 0 -29 -19 -50 -42z"/>
<path d="M2005 6084 c-115 -13 -285 -58 -285 -76 0 -6 8 -7 18 -3 98 38 197
58 313 62 169 7 247 -8 427 -84 6 -3 12 -1 12 5 0 13 -116 59 -194 77 -66 15
-227 25 -291 19z"/>
<path d="M1932 6000 c-136 -19 -225 -57 -220 -93 6 -39 73 -69 211 -92 31 -5
39 -11 43 -34 l6 -27 56 19 c45 15 74 18 135 14 42 -3 75 -1 72 3 -8 13 4 18
90 35 44 9 96 26 118 36 32 17 38 25 35 47 -7 57 -125 90 -343 97 -77 2 -168
0 -203 -5z"/>
<path d="M4645 5955 c-48 -187 -352 -513 -648 -694 -181 -110 -392 -193 -590
-233 -87 -17 -148 -22 -275 -23 l-163 0 -5 -25 c-27 -123 -79 -210 -139 -236
-52 -21 -95 -3 -159 68 -31 34 -56 56 -56 50 0 -11 447 -602 455 -602 2 0 -3
19 -11 43 -20 57 -71 249 -84 316 -8 44 -6 71 11 150 11 53 22 112 26 131 l5
35 218 1 218 0 -14 -21 c-12 -19 -54 -130 -54 -143 0 -3 16 21 36 54 62 105
71 110 243 150 l153 36 38 -26 c21 -14 57 -50 81 -80 24 -30 45 -54 47 -52 7
8 -47 102 -80 140 l-35 40 103 42 c109 44 248 116 326 168 46 31 49 32 115 24
37 -4 165 -7 283 -6 l215 2 115 -76 c63 -42 147 -93 187 -113 l72 -37 -38 -51
c-68 -91 -69 -103 -5 -51 95 77 105 79 206 38 48 -19 118 -43 156 -52 82 -21
94 -30 133 -97 24 -40 28 -44 23 -20 -4 17 -13 45 -20 64 l-14 33 33 -6 c17
-3 102 -9 189 -12 l156 -7 6 -31 c10 -54 63 -153 106 -200 54 -58 112 -86 178
-86 54 0 92 23 92 55 0 8 6 15 13 15 37 0 97 108 97 174 0 18 -3 17 -32 -11
-66 -62 -134 -63 -216 -3 -52 37 -121 125 -159 200 l-28 57 -135 5 c-308 13
-635 119 -879 283 -98 65 -227 188 -299 284 -61 82 -142 229 -172 314 -18 52
-18 52 -25 22z m56 -542 c99 -76 101 -78 73 -84 -16 -4 -92 -7 -169 -7 -77 0
-152 3 -167 7 -27 6 -25 8 60 83 48 43 90 77 94 78 4 0 53 -35 109 -77z"/>
<path d="M1071 5556 c2 -2 193 -61 424 -130 231 -70 425 -128 432 -131 6 -2
-2 18 -19 45 -20 32 -35 77 -46 134 l-16 86 -390 0 c-214 0 -387 -2 -385 -4z"/>
<path d="M5131 4630 c-2 -196 86 -383 210 -445 72 -37 166 -35 235 5 111 63
185 215 199 408 l5 77 -20 -83 c-51 -218 -155 -325 -315 -326 -160 0 -256 116
-299 359 l-14 80 -1 -75z"/>
<path d="M4013 4635 c0 -33 2 -45 4 -27 2 18 2 45 0 60 -2 15 -4 0 -4 -33z"/>
<path d="M3364 4572 c9 -102 28 -176 62 -243 124 -245 399 -255 519 -20 31 63
65 185 64 231 -1 26 -3 29 -6 10 -2 -14 -11 -47 -20 -75 -54 -170 -153 -255
-299 -255 -163 0 -261 109 -300 333 -9 51 -18 94 -21 97 -3 3 -2 -32 1 -78z"/>
<path d="M6643 4473 c43 -2 110 -2 150 0 40 1 5 3 -78 3 -82 0 -115 -2 -72 -3z"/>
<path d="M2073 4463 c26 -2 68 -2 95 0 26 2 4 3 -48 3 -52 0 -74 -1 -47 -3z"/>
<path d="M6448 4463 c6 -2 18 -2 25 0 6 3 1 5 -13 5 -14 0 -19 -2 -12 -5z"/>
<path d="M7008 4463 c23 -2 59 -2 80 0 20 2 1 4 -43 4 -44 0 -61 -2 -37 -4z"/>
<path d="M1897 4453 c18 -2 50 -2 70 0 21 2 7 4 -32 4 -38 0 -55 -2 -38 -4z"/>
<path d="M6075 4413 c-35 -235 -168 -399 -431 -532 -141 -70 -260 -101 -468
-122 -170 -16 -818 -6 -996 15 -358 44 -653 136 -811 251 -80 59 -185 179
-243 278 -31 52 -56 101 -56 108 0 7 -3 10 -6 6 -10 -9 25 -105 70 -192 46
-90 141 -197 226 -255 273 -185 716 -270 1415 -270 447 0 683 36 890 134 249
119 389 308 420 569 9 68 0 77 -10 10z"/>
<path d="M7260 4450 c41 -5 153 -16 247 -25 153 -14 223 -23 403 -51 25 -4 42
-4 39 0 -15 16 -458 69 -669 80 l-95 5 75 -9z"/>
<path d="M1773 4443 c15 -2 37 -2 50 0 12 2 0 4 -28 4 -27 0 -38 -2 -22 -4z"/>
<path d="M1668 4433 c12 -2 32 -2 45 0 12 2 2 4 -23 4 -25 0 -35 -2 -22 -4z"/>
<path d="M1578 4423 c12 -2 30 -2 40 0 9 3 -1 5 -23 4 -22 0 -30 -2 -17 -4z"/>
<path d="M1493 4413 c9 -2 25 -2 35 0 9 3 1 5 -18 5 -19 0 -27 -2 -17 -5z"/>
<path d="M1423 4403 c9 -2 23 -2 30 0 6 3 -1 5 -18 5 -16 0 -22 -2 -12 -5z"/>
<path d="M1363 4393 c9 -2 23 -2 30 0 6 3 -1 5 -18 5 -16 0 -22 -2 -12 -5z"/>
<path d="M1298 4383 c6 -2 18 -2 25 0 6 3 1 5 -13 5 -14 0 -19 -2 -12 -5z"/>
<path d="M1258 4373 c7 -3 16 -2 19 1 4 3 -2 6 -13 5 -11 0 -14 -3 -6 -6z"/>
<path d="M6438 4313 c17 -2 47 -2 65 0 17 2 3 4 -33 4 -36 0 -50 -2 -32 -4z"/>
<path d="M2428 4303 c23 -2 59 -2 80 0 20 2 1 4 -43 4 -44 0 -61 -2 -37 -4z"/>
<path d="M6678 4303 c18 -2 45 -2 60 0 15 2 0 4 -33 4 -33 0 -45 -2 -27 -4z"/>
<path d="M2278 4293 c18 -2 45 -2 60 0 15 2 0 4 -33 4 -33 0 -45 -2 -27 -4z"/>
<path d="M6838 4293 c12 -2 30 -2 40 0 9 3 -1 5 -23 4 -22 0 -30 -2 -17 -4z"/>
<path d="M2163 4283 c15 -2 37 -2 50 0 12 2 0 4 -28 4 -27 0 -38 -2 -22 -4z"/>
<path d="M6958 4283 c12 -2 30 -2 40 0 9 3 -1 5 -23 4 -22 0 -30 -2 -17 -4z"/>
<path d="M2058 4273 c12 -2 32 -2 45 0 12 2 2 4 -23 4 -25 0 -35 -2 -22 -4z"/>
<path d="M7063 4273 c9 -2 25 -2 35 0 9 3 1 5 -18 5 -19 0 -27 -2 -17 -5z"/>
<path d="M1978 4263 c12 -2 30 -2 40 0 9 3 -1 5 -23 4 -22 0 -30 -2 -17 -4z"/>
<path d="M7163 4263 c9 -2 23 -2 30 0 6 3 -1 5 -18 5 -16 0 -22 -2 -12 -5z"/>
<path d="M1893 4253 c9 -2 25 -2 35 0 9 3 1 5 -18 5 -19 0 -27 -2 -17 -5z"/>
<path d="M7248 4253 c6 -2 18 -2 25 0 6 3 1 5 -13 5 -14 0 -19 -2 -12 -5z"/>
<path d="M1823 4243 c9 -2 25 -2 35 0 9 3 1 5 -18 5 -19 0 -27 -2 -17 -5z"/>
<path d="M7345 4239 c17 -4 91 -18 165 -29 125 -20 358 -69 405 -86 13 -5 17
-4 10 3 -19 19 -213 62 -465 103 -131 21 -166 24 -115 9z"/>
<path d="M1753 4233 c9 -2 23 -2 30 0 6 3 -1 5 -18 5 -16 0 -22 -2 -12 -5z"/>
<path d="M1693 4223 c9 -2 23 -2 30 0 6 3 -1 5 -18 5 -16 0 -22 -2 -12 -5z"/>
<path d="M6195 4096 c-146 -149 -260 -232 -435 -315 -267 -127 -545 -185 -955
-197 -526 -16 -1001 61 -1331 216 -48 22 -89 39 -90 37 -11 -10 61 -86 95
-102 44 -19 55 -40 71 -138 12 -76 -3 -161 -45 -266 -19 -47 -33 -87 -30 -89
11 -11 44 33 73 96 39 84 56 193 43 282 -5 36 -8 66 -6 68 7 8 146 -73 174
-102 l34 -35 -13 -88 c-24 -166 -104 -390 -172 -484 l-30 -41 18 -39 c9 -22
20 -39 23 -38 3 0 20 17 37 37 32 37 67 135 114 316 18 74 38 122 26 66 -2
-14 -7 -61 -10 -105 -10 -150 18 -28 42 185 l8 65 12 -117 c13 -121 19 -148
32 -148 28 0 11 235 -27 364 -5 17 -1 18 30 13 27 -4 53 -23 109 -80 64 -66
158 -137 179 -137 4 0 -17 24 -47 52 -68 64 -94 104 -42 65 92 -70 192 -86
256 -41 20 15 29 24 19 20 -10 -3 -40 -1 -68 5 -56 12 -231 83 -184 74 187
-33 323 -42 358 -23 19 9 20 9 11 -3 -167 -215 -235 -291 -412 -466 l-205
-203 5 50 c3 29 22 84 46 134 46 97 36 118 -16 32 -58 -94 -75 -152 -70 -234
3 -40 2 -75 -2 -77 -17 -10 -84 -120 -101 -164 l-17 -46 -10 40 c-6 22 -13 54
-15 70 -5 31 0 -147 5 -199 3 -30 -12 -44 -67 -61 -19 -6 -19 -7 -2 -17 19
-10 50 -6 98 13 19 7 28 20 32 42 10 61 48 147 92 206 56 76 129 131 232 174
45 19 114 53 154 76 67 39 71 40 66 19 -51 -236 -58 -284 -55 -407 2 -144 -8
-187 -53 -226 -36 -30 -76 -32 -178 -9 -40 9 -86 13 -105 10 -39 -7 -93 -62
-126 -125 -25 -50 -26 -76 -1 -38 20 30 72 76 107 95 16 8 38 6 95 -8 89 -23
167 -25 214 -6 42 18 41 22 15 -104 -27 -131 -26 -148 8 -162 l27 -11 -30 -8
c-59 -16 -206 -36 -210 -28 -3 4 -1 38 5 76 15 103 11 106 -19 15 -15 -45 -34
-89 -43 -98 -14 -14 -19 -13 -53 10 -61 42 -148 57 -200 36 -17 -6 -13 -9 20
-15 134 -23 237 -75 307 -154 l40 -46 -7 40 c-4 22 -12 48 -17 58 -7 13 -5 17
9 17 10 0 28 3 41 6 19 6 22 3 22 -24 0 -17 -9 -58 -19 -91 -10 -34 -17 -61
-14 -61 2 0 22 37 44 83 l40 82 -5 -50 c-2 -27 -16 -86 -30 -129 -16 -51 -20
-74 -11 -65 26 26 76 139 93 211 17 67 19 71 56 83 50 17 70 38 72 72 1 23 7
29 33 34 43 9 46 -1 31 -118 -16 -130 -44 -219 -75 -239 -13 -9 -97 -40 -187
-69 l-163 -54 -125 123 c-126 123 -172 159 -223 171 -26 7 -57 -7 -57 -25 0
-3 36 -30 80 -59 77 -50 119 -97 135 -149 5 -19 1 -25 -27 -36 -50 -21 -128
-28 -178 -17 -35 8 -57 7 -100 -6 -100 -28 -100 -50 3 -77 183 -48 461 -47
648 2 64 17 140 42 170 55 l55 24 44 -40 c100 -89 244 -131 430 -125 101 3
121 7 167 31 58 30 93 69 93 103 0 13 -3 24 -6 24 -3 0 -40 -17 -81 -37 -65
-32 -86 -37 -162 -41 -242 -12 -464 154 -385 288 36 60 164 110 285 110 92 0
224 -81 331 -204 47 -54 124 -96 176 -96 18 0 77 -20 132 -45 54 -25 126 -51
160 -57 76 -13 200 1 284 32 61 23 146 94 146 123 0 22 -31 37 -74 37 -35 0
-36 1 -36 39 0 70 -9 75 -43 23 -62 -91 -208 -134 -355 -102 -78 16 -146 51
-150 77 -5 31 84 104 199 163 89 46 100 54 95 73 -4 12 -11 43 -17 70 -13 59
-29 61 -29 4 0 -37 -4 -46 -25 -55 -14 -6 -25 -8 -25 -4 0 5 -7 17 -15 28 -14
18 -14 17 -9 -12 6 -29 3 -32 -76 -78 -46 -26 -110 -74 -143 -106 l-60 -59
-44 12 c-86 23 -98 51 -184 437 -53 241 -53 223 -2 230 l41 6 16 -86 c20 -109
48 -232 51 -228 2 2 -3 57 -11 123 -7 66 -13 136 -14 156 0 36 1 37 46 44 25
3 49 4 52 0 12 -11 31 -211 32 -320 0 -97 -3 -117 -25 -163 -14 -30 -25 -56
-25 -59 0 -3 29 22 64 55 72 67 113 83 151 58 23 -15 24 -15 27 16 2 17 10 34
18 38 8 4 29 14 45 21 53 25 54 26 40 135 -15 115 -38 218 -60 271 -14 33 -14
38 1 54 9 10 20 16 24 14 4 -3 13 2 20 10 7 8 21 15 30 15 11 0 39 28 68 66
l49 66 -40 37 c-78 70 -131 175 -147 291 l-9 65 3 -92 c2 -86 5 -98 45 -178
31 -63 40 -90 32 -98 -8 -8 -32 34 -87 149 -84 174 -154 332 -154 347 0 5 15
34 33 66 l34 57 -38 16 c-37 16 -71 55 -124 144 l-24 40 60 -14 c57 -14 83
-11 63 7 -5 5 -40 19 -79 32 l-70 23 34 10 c23 6 46 6 75 -1 22 -7 42 -10 43
-9 2 1 -26 20 -62 41 -36 21 -64 39 -63 40 2 2 66 15 143 30 260 50 499 143
686 266 108 71 288 246 337 327 17 28 31 51 29 51 -1 -1 -60 -61 -132 -133z
m-1410 -626 c43 -11 90 -27 103 -36 l24 -16 -113 -74 c-87 -58 -119 -74 -143
-72 -25 3 -34 -3 -55 -34 -29 -42 -42 -51 -248 -181 -237 -149 -322 -193 -153
-79 159 106 325 274 371 377 29 63 22 71 -17 18 -50 -66 -234 -252 -319 -322
-67 -55 -227 -169 -290 -206 -29 -17 -29 -16 5 16 20 19 93 82 162 141 136
116 209 200 326 376 l75 112 97 0 c64 0 123 -7 175 -20z m283 -24 c13 -11 34
-41 47 -66 25 -51 103 -266 159 -440 42 -133 111 -281 162 -352 l35 -50 -26
-38 c-31 -44 -80 -79 -145 -103 -64 -24 -114 -33 -298 -56 -90 -12 -177 -28
-194 -37 l-30 -16 4 384 c3 338 6 387 21 415 20 38 63 63 107 63 79 0 122 128
90 268 -6 24 -8 48 -4 53 8 13 44 1 72 -25z m-83 -73 c-21 -122 -42 -152 -123
-178 -65 -21 -88 -54 -97 -134 -24 -231 -81 -319 -303 -468 -65 -43 -138 -99
-164 -125 l-46 -47 -7 48 c-3 26 -1 84 5 128 14 107 65 295 83 308 8 5 71 49
139 97 143 101 363 275 446 354 31 29 61 53 65 54 4 0 5 -17 2 -37z m-229
-732 c-9 -99 -16 -233 -16 -299 l0 -120 31 -26 c32 -27 51 -34 109 -38 l35 -3
-61 -32 c-85 -44 -278 -107 -469 -153 -88 -21 -160 -38 -161 -37 0 1 8 96 20
212 l20 210 45 45 c25 25 95 75 156 110 136 81 219 161 266 256 19 38 35 66
37 62 2 -4 -4 -88 -12 -187z m657 -318 c20 -72 44 -212 48 -276 3 -47 -8 -66
-37 -67 -23 0 -71 371 -51 397 14 20 23 8 40 -54z m-59 -130 c4 -93 9 -181 12
-198 4 -29 -9 -65 -20 -54 -3 3 -17 93 -30 200 -22 176 -22 195 -8 207 35 28
39 16 46 -155z m-67 -48 c27 -225 27 -225 5 -225 -10 0 -23 -5 -30 -12 -6 -6
-14 -10 -16 -7 -5 5 -33 221 -42 327 -8 90 -1 105 41 100 17 -3 21 -21 42
-183z"/>
<path d="M1633 4213 c9 -2 23 -2 30 0 6 3 -1 5 -18 5 -16 0 -22 -2 -12 -5z"/>
<path d="M1500 4194 c-105 -23 -220 -56 -225 -64 -3 -4 23 1 58 11 34 11 112
30 172 43 61 14 99 24 85 24 -14 0 -54 -6 -90 -14z"/>
<path d="M4480 4177 c0 -8 9 -26 21 -41 40 -51 129 -26 129 37 0 15 -3 16 -21
6 -22 -11 -80 -8 -111 5 -13 6 -18 4 -18 -7z"/>
<path d="M4418 3991 c-48 -7 -66 -16 -55 -27 26 -26 358 -35 392 -10 18 13 18
14 -2 24 -25 14 -270 23 -335 13z"/>
<path d="M3705 3453 c-68 -182 -176 -314 -306 -375 -41 -19 -85 -40 -99 -47
-22 -10 -18 -11 25 -6 78 9 185 66 244 131 28 31 51 53 51 49 0 -18 -45 -88
-87 -135 -40 -46 -43 -51 -16 -32 48 34 101 100 133 167 32 66 41 55 10 -12
-30 -66 -77 -131 -154 -210 -72 -76 -71 -94 3 -45 77 52 156 179 196 314 13
45 30 248 20 248 -1 0 -10 -21 -20 -47z m-18 -175 c-3 -8 -6 -5 -6 6 -1 11 2
17 5 13 3 -3 4 -12 1 -19z"/>
<path d="M5554 3279 c-4 -8 -23 -37 -41 -66 -18 -29 -29 -54 -24 -58 5 -3 26
22 46 56 45 72 67 69 41 -7 -21 -63 -12 -69 14 -9 l21 49 -24 24 c-19 19 -26
21 -33 11z"/>
<path d="M5648 3178 c10 -10 -3 -20 -60 -50 -88 -45 -67 -51 26 -7 64 30 66
32 50 50 -9 11 -20 19 -23 19 -3 0 1 -6 7 -12z"/>
<path d="M5790 3040 c-44 -66 -80 -124 -80 -129 0 -14 55 -51 75 -51 9 0 30
-7 46 -16 29 -15 30 -15 20 5 -6 11 -16 23 -21 26 -6 4 3 25 23 53 19 26 57
84 85 129 l50 81 -43 11 c-24 6 -51 11 -59 11 -9 0 -51 -53 -96 -120z"/>
<path d="M4011 2024 c0 -11 3 -14 6 -6 3 7 2 16 -1 19 -3 4 -6 -2 -5 -13z"/>
<path d="M2893 1392 c3 -72 9 -127 16 -136 17 -21 134 -74 236 -108 545 -179
1806 -224 2614 -93 316 52 558 133 634 213 27 28 30 47 28 175 l-1 68 -42 -29
c-309 -210 -1693 -304 -2738 -186 -348 39 -646 120 -728 197 l-23 21 4 -122z"/>
<path d="M2370 842 l0 -59 60 -16 60 -17 0 -375 0 -375 2175 0 2175 0 0 375 0
374 70 21 70 21 0 54 0 55 -2305 0 -2305 0 0 -58z"/>
</g>
</svg>
